<svg xmlns="http://www.w3.org/2000/svg" width="980" height="520" viewBox="0 0 980 520">
  <rect width="100%" height="100%" fill="#0b1220"/>
  <text x="80" y="42" font-family="Inter,system-ui,sans-serif" font-size="24" fill="#f8fafc">Chyren Proof Pack Metrics</text>
  <text x="80" y="64" font-family="Inter,system-ui,sans-serif" font-size="12" fill="#94a3b8">Generated: 2026-04-12 00:36:11Z</text>
  <line x1="80" y1="440" x2="900" y2="440" stroke="#334155" stroke-width="1" /><text x="70" y="444" text-anchor="end" font-size="11" fill="#94a3b8">0</text><line x1="80" y1="370" x2="900" y2="370" stroke="#334155" stroke-width="1" /><text x="70" y="374" text-anchor="end" font-size="11" fill="#94a3b8">3.2</text><line x1="80" y1="300" x2="900" y2="300" stroke="#334155" stroke-width="1" /><text x="70" y="304" text-anchor="end" font-size="11" fill="#94a3b8">6.4</text><line x1="80" y1="230" x2="900" y2="230" stroke="#334155" stroke-width="1" /><text x="70" y="234" text-anchor="end" font-size="11" fill="#94a3b8">9.6</text><line x1="80" y1="160" x2="900" y2="160" stroke="#334155" stroke-width="1" /><text x="70" y="164" text-anchor="end" font-size="11" fill="#94a3b8">12.8</text><line x1="80" y1="90" x2="900" y2="90" stroke="#334155" stroke-width="1" /><text x="70" y="94" text-anchor="end" font-size="11" fill="#94a3b8">16</text>
  <line x1="80" y1="440" x2="900" y2="440" stroke="#64748b" stroke-width="2" />
  <rect x="104" y="419" width="55" height="21" fill="#4f46e5" rx="6" /><rect x="183" y="419" width="55" height="21" fill="#4f46e5" rx="6" /><rect x="262" y="419" width="55" height="21" fill="#4f46e5" rx="6" /><rect x="341" y="425" width="55" height="15" fill="#4f46e5" rx="6" /><rect x="420" y="90" width="55" height="350" fill="#4f46e5" rx="6" /><rect x="499" y="331" width="55" height="109" fill="#4f46e5" rx="6" /><rect x="578" y="287" width="55" height="153" fill="#4f46e5" rx="6" /><rect x="657" y="419" width="55" height="21" fill="#4f46e5" rx="6" /><rect x="736" y="222" width="55" height="218" fill="#4f46e5" rx="6" /><rect x="815" y="397" width="55" height="43" fill="#4f46e5" rx="6" />
  <text x="131.5" y="462" text-anchor="middle" font-size="12" fill="#cbd5e1">rust_tests_passed</text><text x="131.5" y="411" text-anchor="middle" font-size="12" fill="#e2e8f0">1</text><text x="210.5" y="462" text-anchor="middle" font-size="12" fill="#cbd5e1">python_tests_passed</text><text x="210.5" y="411" text-anchor="middle" font-size="12" fill="#e2e8f0">1</text><text x="289.5" y="462" text-anchor="middle" font-size="12" fill="#cbd5e1">web_typecheck_passed</text><text x="289.5" y="411" text-anchor="middle" font-size="12" fill="#e2e8f0">1</text><text x="368.5" y="462" text-anchor="middle" font-size="12" fill="#cbd5e1">adccl_threshold_default</text><text x="368.5" y="417" text-anchor="middle" font-size="12" fill="#e2e8f0">0.7</text><text x="447.5" y="462" text-anchor="middle" font-size="12" fill="#cbd5e1">rust_workspace_crates</text><text x="447.5" y="82" text-anchor="middle" font-size="12" fill="#e2e8f0">16</text><text x="526.5" y="462" text-anchor="middle" font-size="12" fill="#cbd5e1">rust_tests_duration_s</text><text x="526.5" y="323" text-anchor="middle" font-size="12" fill="#e2e8f0">5</text><text x="605.5" y="462" text-anchor="middle" font-size="12" fill="#cbd5e1">web_typecheck_duration_s</text><text x="605.5" y="279" text-anchor="middle" font-size="12" fill="#e2e8f0">7</text><text x="684.5" y="462" text-anchor="middle" font-size="12" fill="#cbd5e1">web_lint_passed</text><text x="684.5" y="411" text-anchor="middle" font-size="12" fill="#e2e8f0">1</text><text x="763.5" y="462" text-anchor="middle" font-size="12" fill="#cbd5e1">web_lint_duration_s</text><text x="763.5" y="214" text-anchor="middle" font-size="12" fill="#e2e8f0">10</text><text x="842.5" y="462" text-anchor="middle" font-size="12" fill="#cbd5e1">python_tests_duration_s</text><text x="842.5" y="389" text-anchor="middle" font-size="12" fill="#e2e8f0">2</text>
</svg>
