<svg xmlns="http://www.w3.org/2000/svg" width="1180" height="500" viewBox="0 0 1180 500">
  <rect width="100%" height="100%" fill="#0b1220"/>
  <text x="120" y="42" font-size="24" fill="#f8fafc" font-family="Inter,system-ui,sans-serif">Run Stability Heatmap</text>
  <text x="120" y="64" font-size="12" fill="#94a3b8">Green=pass, Red=fail, Gray=missing • Generated: 2026-04-12 00:39:53Z</text>
  <rect x="120.0" y="120.0" width="309.3" height="61.0" fill="#ef4444" rx="4" /><rect x="433.3" y="120.0" width="309.3" height="61.0" fill="#ef4444" rx="4" /><rect x="746.7" y="120.0" width="309.3" height="61.0" fill="#10b981" rx="4" /><rect x="120.0" y="185.0" width="309.3" height="61.0" fill="#10b981" rx="4" /><rect x="433.3" y="185.0" width="309.3" height="61.0" fill="#10b981" rx="4" /><rect x="746.7" y="185.0" width="309.3" height="61.0" fill="#10b981" rx="4" /><rect x="120.0" y="250.0" width="309.3" height="61.0" fill="#ef4444" rx="4" /><rect x="433.3" y="250.0" width="309.3" height="61.0" fill="#ef4444" rx="4" /><rect x="746.7" y="250.0" width="309.3" height="61.0" fill="#10b981" rx="4" /><rect x="120.0" y="315.0" width="309.3" height="61.0" fill="#10b981" rx="4" /><rect x="433.3" y="315.0" width="309.3" height="61.0" fill="#10b981" rx="4" /><rect x="746.7" y="315.0" width="309.3" height="61.0" fill="#10b981" rx="4" />
  <text x="110" y="156.5" text-anchor="end" font-size="12" fill="#cbd5e1">python_tests</text><text x="110" y="221.5" text-anchor="end" font-size="12" fill="#cbd5e1">rust_tests</text><text x="110" y="286.5" text-anchor="end" font-size="12" fill="#cbd5e1">web_lint</text><text x="110" y="351.5" text-anchor="end" font-size="12" fill="#cbd5e1">web_typecheck</text>
  <text x="276.7" y="400" text-anchor="middle" font-size="10" fill="#94a3b8">20260412T003159Z</text><text x="590.0" y="400" text-anchor="middle" font-size="10" fill="#94a3b8">20260412T003400Z</text><text x="903.3" y="400" text-anchor="middle" font-size="10" fill="#94a3b8">20260412T003547Z</text>
</svg>
