<svg xmlns="http://www.w3.org/2000/svg" width="1180" height="580" viewBox="0 0 1180 580">
  <rect width="100%" height="100%" fill="#0b1220"/>
  <text x="90" y="42" font-size="24" fill="#f8fafc" font-family="Inter,system-ui,sans-serif">Step Duration Trend (seconds)</text>
  <text x="90" y="64" font-size="12" fill="#94a3b8">Generated: 2026-04-12 00:39:53Z</text>
  <line x1="90" y1="490.0" x2="1090" y2="490.0" stroke="#243247" stroke-width="1" /><text x="78" y="494.0" text-anchor="end" font-size="11" fill="#94a3b8">0</text><line x1="90" y1="410.0" x2="1090" y2="410.0" stroke="#243247" stroke-width="1" /><text x="78" y="414.0" text-anchor="end" font-size="11" fill="#94a3b8">15</text><line x1="90" y1="330.0" x2="1090" y2="330.0" stroke="#243247" stroke-width="1" /><text x="78" y="334.0" text-anchor="end" font-size="11" fill="#94a3b8">29</text><line x1="90" y1="250.0" x2="1090" y2="250.0" stroke="#243247" stroke-width="1" /><text x="78" y="254.0" text-anchor="end" font-size="11" fill="#94a3b8">44</text><line x1="90" y1="170.0" x2="1090" y2="170.0" stroke="#243247" stroke-width="1" /><text x="78" y="174.0" text-anchor="end" font-size="11" fill="#94a3b8">58</text><line x1="90" y1="90.0" x2="1090" y2="90.0" stroke="#243247" stroke-width="1" /><text x="78" y="94.0" text-anchor="end" font-size="11" fill="#94a3b8">73</text>
  <line x1="90" y1="490" x2="1090" y2="490" stroke="#64748b" stroke-width="2"/>
  <polyline fill="none" stroke="#4f46e5" stroke-width="2.5" points="90.0,126.4 590.0,357.8 1090.0,479.0" /><circle cx="90.0" cy="126.4" r="3.2" fill="#4f46e5" /><circle cx="590.0" cy="357.8" r="3.2" fill="#4f46e5" /><circle cx="1090.0" cy="479.0" r="3.2" fill="#4f46e5" /><polyline fill="none" stroke="#06b6d4" stroke-width="2.5" points="90.0,423.9 590.0,473.5 1090.0,462.5" /><circle cx="90.0" cy="423.9" r="3.2" fill="#06b6d4" /><circle cx="590.0" cy="473.5" r="3.2" fill="#06b6d4" /><circle cx="1090.0" cy="462.5" r="3.2" fill="#06b6d4" /><polyline fill="none" stroke="#10b981" stroke-width="2.5" points="90.0,445.9 590.0,451.4 1090.0,434.9" /><circle cx="90.0" cy="445.9" r="3.2" fill="#10b981" /><circle cx="590.0" cy="451.4" r="3.2" fill="#10b981" /><circle cx="1090.0" cy="434.9" r="3.2" fill="#10b981" /><polyline fill="none" stroke="#f59e0b" stroke-width="2.5" points="90.0,473.5 590.0,473.5 1090.0,451.4" /><circle cx="90.0" cy="473.5" r="3.2" fill="#f59e0b" /><circle cx="590.0" cy="473.5" r="3.2" fill="#f59e0b" /><circle cx="1090.0" cy="451.4" r="3.2" fill="#f59e0b" />
  <text x="90.0" y="514" text-anchor="middle" font-size="10" fill="#94a3b8">20260412T003159Z</text><text x="590.0" y="514" text-anchor="middle" font-size="10" fill="#94a3b8">20260412T003400Z</text><text x="1090.0" y="514" text-anchor="middle" font-size="10" fill="#94a3b8">20260412T003547Z</text>
  <rect x="890" y="88" width="14" height="14" rx="2" fill="#4f46e5" /><text x="912" y="99" font-size="12" fill="#cbd5e1">python_tests</text><rect x="890" y="108" width="14" height="14" rx="2" fill="#06b6d4" /><text x="912" y="119" font-size="12" fill="#cbd5e1">rust_tests</text><rect x="890" y="128" width="14" height="14" rx="2" fill="#10b981" /><text x="912" y="139" font-size="12" fill="#cbd5e1">web_lint</text><rect x="890" y="148" width="14" height="14" rx="2" fill="#f59e0b" /><text x="912" y="159" font-size="12" fill="#cbd5e1">web_typecheck</text>
</svg>
